<?xml version="1.0" encoding="UTF-8" standalone="no"?>
<!-- Created with Inkscape (http://www.inkscape.org/) -->

<svg
   version="1.1"
   id="svg1762"
   width="793.70135"
   height="1122.52"
   viewBox="0 0 793.70135 1122.52"
   sodipodi:docname="icon_project.svg"
   inkscape:version="1.2.2 (b0a8486541, 2022-12-01)"
   xmlns:inkscape="http://www.inkscape.org/namespaces/inkscape"
   xmlns:sodipodi="http://sodipodi.sourceforge.net/DTD/sodipodi-0.dtd"
   xmlns="http://www.w3.org/2000/svg"
   xmlns:svg="http://www.w3.org/2000/svg">
  <defs
     id="defs1766">
    <clipPath
       clipPathUnits="userSpaceOnUse"
       id="clipPath1778">
      <path
         d="M 0,841.89 H 595.276 V 0 H 0 Z"
         id="path1776" />
    </clipPath>
    <clipPath
       clipPathUnits="userSpaceOnUse"
       id="clipPath1874">
      <path
         d="M 0,841.89 H 595.276 V 0 H 0 Z"
         id="path1872" />
    </clipPath>
    <clipPath
       clipPathUnits="userSpaceOnUse"
       id="clipPath1902">
      <path
         d="M 0,841.89 H 595.276 V 0 H 0 Z"
         id="path1900" />
    </clipPath>
    <clipPath
       clipPathUnits="userSpaceOnUse"
       id="clipPath2458">
      <ellipse
         style="fill:#bbb4f7;fill-opacity:1;stroke:none;stroke-width:34.3503;stroke-dasharray:none"
         id="ellipse2460"
         cx="262.00104"
         cy="-497.26666"
         rx="260.35263"
         ry="271.8219"
         inkscape:label="background"
         transform="scale(1,-1)" />
    </clipPath>
  </defs>
  <sodipodi:namedview
     id="namedview1764"
     pagecolor="#505050"
     bordercolor="#eeeeee"
     borderopacity="1"
     inkscape:showpageshadow="0"
     inkscape:pageopacity="0"
     inkscape:pagecheckerboard="0"
     inkscape:deskcolor="#505050"
     showgrid="false"
     inkscape:zoom="0.66190355"
     inkscape:cx="398.09425"
     inkscape:cy="561.26002"
     inkscape:window-width="1920"
     inkscape:window-height="1010"
     inkscape:window-x="0"
     inkscape:window-y="0"
     inkscape:window-maximized="1"
     inkscape:current-layer="layer2">
    <inkscape:page
       x="0"
       y="0"
       id="page1768"
       width="793.70135"
       height="1122.52" />
  </sodipodi:namedview>
  <g
     id="g1770"
     inkscape:groupmode="layer"
     inkscape:label="Page 1"
     transform="matrix(1.3333333,0,0,-1.3333333,0,1122.52)">
    <ellipse
       style="fill:#bbb4f7;fill-opacity:1;stroke:none;stroke-width:34.3503;stroke-dasharray:none"
       id="path1478"
       cx="262.00104"
       cy="-497.26666"
       rx="260.35263"
       ry="271.8219"
       inkscape:label="background"
       transform="scale(1,-1)" />
    <g
       id="g1772"
       clip-path="url(#clipPath2458)"
       inkscape:label="face">
      <g
         id="g1774"
         clip-path="url(#clipPath1778)">
        <g
           inkscape:groupmode="layer"
           id="layer4"
           inkscape:label="back hair"
           style="display:inline">
          <g
             id="g1796"
             transform="translate(98.5825,558.2697)"
             style="display:inline">
            <path
               d="m 0,0 c 0,0 -0.123,-0.426 -0.41,-1.292 -2.296,-6.934 -15.078,-42.066 -59.019,-112.422 0,0 -16.285,-20 -12.285,-40 4,-20 6.571,-28 30.857,-44 0,0 -9.429,14.571 -8.857,35.143 0.571,20.571 6,23.428 6,23.428 0,0 -4.286,-18.571 2.285,-29.428 6.572,-10.858 26.286,-30.858 42.858,-38.572 l 5.428,131.714 z"
               style="fill:#dda09c;fill-opacity:1;fill-rule:nonzero;stroke:none"
               id="path1798" />
          </g>
          <g
             id="g1800"
             transform="translate(469.3682,407.1982)"
             style="display:inline">
            <path
               d="m 0,0 c 0,0 14.143,-19.929 10.5,-45.643 0,0 15.643,11.357 21.643,56.572 0,0 2.143,22.071 -12.214,39.214 0,0 8.142,-4.286 17.571,-2.143 9.429,2.143 37.714,14.143 34.5,39 0,0 -5.571,-9.429 -21.214,-10.071 -15.643,-0.643 -45.429,7.928 -65.786,30 -20.357,22.071 -29.571,29.357 -53.786,84 L -124.714,6 l -59.143,-38.143 1.5,-27.643 41.143,-11.357 14.357,3.643 -0.429,24.214 16.072,-16.714 c 0,0 4.285,4.714 -5.143,18.214 l 19.071,-5.143 55.072,40.286 z"
               style="fill:#dda09c;fill-opacity:1;fill-rule:nonzero;stroke:none"
               id="path1802" />
          </g>
          <g
             id="g1804"
             transform="translate(168.9396,371.1982)"
             style="display:inline">
            <path
               d="m 0,0 30.857,-24.214 29.572,13.928 0.857,25.715 -36.978,4.835 z"
               style="fill:#dda09c;fill-opacity:1;fill-rule:nonzero;stroke:none"
               id="path1806" />
          </g>
        </g>
        <g
           inkscape:groupmode="layer"
           id="layer3"
           inkscape:label="clothes"
           transform="matrix(0.75000002,0,0,-0.75000002,0,841.89002)"
           style="display:inline">
          <g
             id="g1780"
             transform="matrix(1.3333333,0,0,-1.3333333,559.77985,388.07335)">
            <path
               d="m 0,0 c 0,0 23.819,54.149 26.176,78.363 0,0 -12.214,12.429 -80.786,30.429 l 11.358,-59.357 z"
               style="fill:#2a241f;fill-opacity:1;fill-rule:nonzero;stroke:none"
               id="path1782" />
          </g>
          <g
             id="g1784"
             transform="matrix(1.3333333,0,0,-1.3333333,197.2528,245.30336)">
            <path
               d="m 0,0 c 0,0 -61.071,-11.143 -79.929,-22.286 0,0 -3.214,-19.714 34.286,-90.428 l 48.429,52.5 z"
               style="fill:#2a241f;fill-opacity:1;fill-rule:nonzero;stroke:none"
               id="path1786" />
          </g>
          <g
             id="g1788"
             transform="matrix(1.3333333,0,0,-1.3333333,123.52813,369.84535)">
            <path
               d="m 0,0 c 0,0 -5.189,4.264 -3.046,9.942 2.143,5.679 4.607,6.214 4.607,6.214 0,0 -3.257,4.5 -2.592,8.036 0.664,3.536 0.342,6.429 8.164,11.464 0,0 -1.929,6.322 0,10.393 1.928,4.072 4.286,9.322 10.178,11.036 0,0 -2.142,8.143 0,12.643 2.143,4.5 5.572,7.714 10.822,7.928 0,0 -1.929,4.179 0,7.286 1.928,3.107 2.143,5.679 16.393,6.322 0,0 -6.264,-14.036 -11.811,-14.465 0,0 -6.082,-18.214 -8.761,-20.785 0,0 -2.893,-17.572 -10.178,-23.036 0,0 -0.322,-11.893 -7.822,-18.429 C 5.954,14.549 9.321,-0.107 0,0"
               style="fill:#e5cf7c;fill-opacity:1;fill-rule:nonzero;stroke:none"
               id="path1790" />
          </g>
          <g
             id="g1792"
             transform="matrix(1.3333333,0,0,-1.3333333,566.34799,372.44615)">
            <path
               d="M 0,0 C 0,0 6.429,9.214 4.5,14.786 2.571,20.357 -3.214,18 -3.214,18 c 0,0 4.607,6.643 2.357,13.179 -2.25,6.535 -8.786,6 -8.786,6 0,0 3.536,6.321 1.286,10.928 -2.25,4.607 -11.786,9.107 -11.786,9.107 0,0 3.857,9.965 0,13.607 -3.857,3.643 -11.786,6.108 -11.786,6.108 0,0 1.389,8.054 -1.25,11.571 -4.821,6.429 -12.907,4.914 -12.907,4.914 0,0 -1.985,-8.664 9.443,-17.128 0,0 7.714,-18.643 12.429,-20.143 0,0 -0.536,-11.357 9.321,-19.822 0,0 2.143,-14.892 6.857,-18.321 0,0 -0.428,-16.393 8.036,-18"
               style="fill:#e5cf7c;fill-opacity:1;fill-rule:nonzero;stroke:none"
               id="path1794" />
          </g>
          <g
             id="g1808"
             transform="matrix(1.3333333,0,0,-1.3333333,188.2052,671.49374)">
            <path
               d="M 0,0 C 0.857,-0.286 44.011,-61.857 44.011,-61.857 L 184.689,-61 228.857,4.857 H 186.786 L 184.929,1.5 30.429,2.857 Z"
               style="fill:#2a241f;fill-opacity:1;fill-rule:nonzero;stroke:none"
               id="path1810" />
          </g>
          <g
             id="g1812"
             transform="matrix(1.3333333,0,0,-1.3333333,280.77666,660.82708)">
            <path
               d="m 0,0 -20.286,-13.032 1.857,-51.254 129.286,-1.143 1.857,59.286 -62.571,9 z"
               style="fill:#e0e0e0;fill-opacity:1;fill-rule:nonzero;stroke:none"
               id="path1814" />
          </g>
          <g
             id="g1816"
             transform="matrix(1.3333333,0,0,-1.3333333,397.82426,642.58908)">
            <path
               d="m 0,0 c 0,0 -36.857,13.929 -79.5,0 l -14.571,-12.429 13.5,-46.071 c 0,0 35.142,30.643 37.714,30.643 2.571,0 6,0.857 7.5,-1.072 1.5,-1.928 32.571,-28.928 33.857,-29.571 1.286,-0.643 3.857,-2.143 5.571,0 1.715,2.143 24.284,30.462 24.284,30.462 z"
               style="fill:#fdfdf6;fill-opacity:1;fill-rule:nonzero;stroke:none"
               id="path1818" />
          </g>
          <g
             id="g1820"
             transform="matrix(1.3333333,0,0,-1.3333333,329.30039,697.20814)">
            <path
               d="M 0,0 -29.286,-38.714 -1.5,-41.786 12.429,-13.056 28.5,-44.214 48.929,-40.571 23.071,1.214 Z"
               style="fill:#d13727;fill-opacity:1;fill-rule:nonzero;stroke:none"
               id="path1822" />
          </g>
          <g
             id="g1832"
             transform="matrix(1.3333333,0,0,-1.3333333,364.31106,697.73788)">
            <path
               d="m 0,0 c 0,-8.091 -6.559,-14.651 -14.651,-14.651 -8.091,0 -14.651,6.56 -14.651,14.651 0,8.091 6.56,14.651 14.651,14.651 C -6.559,14.651 0,8.091 0,0"
               style="fill:#e5cf7c;fill-opacity:1;fill-rule:nonzero;stroke:none"
               id="path1834" />
          </g>
          <g
             id="g1836"
             transform="matrix(1.3333333,0,0,-1.3333333,242.45759,691.68428)">
            <path
               d="m 0,0 c 0.115,-21.724 1.492,-35.624 3.321,-46.714 0,0 15.429,-2.25 15.75,-3.965 0.322,-1.714 6.965,-3.428 6.965,-3.428 l 11.785,2.786 c 0,0 23.786,-3.322 38.465,-3.322 14.678,0 35.571,2.357 35.571,2.357 l 18.107,3.536 c 0,0 12.536,3 14.036,2.893 0,0 0.929,45 0.929,63.714 0,0 -5.144,4.738 -14.036,4.524 0,0 4.75,-3.952 4.428,-20.238 0,0 0,-35.679 -2.464,-40.929 0,0 -42.643,-2.678 -55.714,-2.464 -13.072,0.214 -53.357,1.393 -61.822,3.107 0,0 -3.964,1.393 -3.321,37.929 z"
               style="fill:#e5cf7c;fill-opacity:1;fill-rule:nonzero;stroke:none"
               id="path1838" />
          </g>
          <g
             id="g1840"
             transform="matrix(1.3333333,0,0,-1.3333333,296.30159,764.54148)">
            <path
               d="m 0,0 c 0,-6.546 -5.306,-11.852 -11.852,-11.852 -6.546,0 -11.852,5.306 -11.852,11.852 0,6.546 5.306,11.852 11.852,11.852 C -5.306,11.852 0,6.546 0,0"
               style="fill:#e5cf7c;fill-opacity:1;fill-rule:nonzero;stroke:none"
               id="path1842" />
          </g>
          <g
             id="g1844"
             transform="matrix(1.3333333,0,0,-1.3333333,422.26999,764.54148)">
            <path
               d="m 0,0 c 0,-6.546 -5.306,-11.852 -11.852,-11.852 -6.546,0 -11.852,5.306 -11.852,11.852 0,6.546 5.306,11.852 11.852,11.852 C -5.306,11.852 0,6.546 0,0"
               style="fill:#e5cf7c;fill-opacity:1;fill-rule:nonzero;stroke:none"
               id="path1846" />
          </g>
        </g>
        <g
           id="g1824"
           transform="translate(224.1539,375.1268)"
           inkscape:label="neck">
          <path
             d="m 0,0 v -18.429 c 0,0 19.429,-19.571 32.857,-20.714 13.429,-1.143 36.572,20.857 36.572,20.857 V 2.857 Z"
             style="fill:#ddc0a2;fill-opacity:1;fill-rule:nonzero;stroke:none"
             id="path1826" />
        </g>
        <g
           id="g1828"
           transform="translate(359.011,419.4125)"
           style="display:inline"
           inkscape:label="ear">
          <path
             d="m 0,0 c 5.714,-0.429 8.571,-1.857 14,1.857 5.429,3.714 16.857,17.857 16.857,17.857 V 65.429 H 15.429 Z"
             style="fill:#ddc0a2;fill-opacity:1;fill-rule:nonzero;stroke:none"
             id="path1830" />
        </g>
        <g
           id="g1848"
           transform="translate(175.5825,403.5554)"
           inkscape:label="skin">
          <path
             d="m 0,0 c 1.286,0 -15.857,-26.143 69,-33.429 84.857,-7.285 111.857,35.572 114.857,41.143 3,5.572 24.857,63 25.714,72 0.858,9 -15,97.715 -15,97.715 l -114.857,27.857 -84,-33 c 0,0 -48.857,-90.857 -47.571,-92.143 C -50.571,78.857 0,0 0,0"
             style="fill:#fff0df;fill-opacity:1;fill-rule:nonzero;stroke:none"
             id="path1850" />
        </g>
        <g
           id="g1852"
           transform="translate(245.3325,716.1982)"
           inkscape:label="hair">
          <path
             d="m 0,0 c 0,0 -44.25,14.357 -79.393,-27.214 -35.143,-41.572 -69.214,-99 -78.214,-176.572 -9,-77.571 -11.143,-86.571 -8.143,-109.714 3,-23.143 10.286,-64.286 57.857,-92.143 0,0 -15.643,10.929 -19.5,45.857 0,0 24.214,-33.214 72.857,-34.928 0,0 27,-19.715 26.786,-21.429 0,0 2.357,41.143 -22.071,79.5 0,0 1.928,11.786 -13.286,28.929 -15.214,17.143 -28.5,46.285 -30.429,64.285 -1.928,18 4.286,57 5.786,64.286 0,0 3.214,-11.571 10.071,-17.357 0,0 0.215,11.143 9.643,19.5 9.429,8.357 12.429,20.357 13.715,23.786 0,0 9.428,-25.5 15.428,-32.357 0,0 0.857,36.642 3.429,44.571 0,0 4.928,-37.286 48,-66.429 0,0 -11.357,23.572 -11.357,32.786 0,0 11.571,-13.928 31.285,-16.5 0,0 10.5,-4.928 23.786,-4.5 0,0 -19.929,42.643 -22.714,52.714 0,0 18.428,-26.357 49.5,-41.785 0,0 1.714,21.214 -8.357,42.214 0,0 20.357,-32.786 33,-39.857 0,0 4.285,-13.714 3.857,-21.429 0,0 12.643,4.072 12.214,26.143 0,0 7.214,-27.714 9.214,-55.143 2,-27.428 1.429,-73.428 -1.714,-84 -3.143,-10.571 -13.429,-51.714 -13.429,-72.571 0,-20.857 4.858,-31.714 4.858,-31.714 0,0 1.142,12 34.857,30.857 0,0 10.285,2 20,10.857 9.714,8.857 28.857,38.286 30.285,43.143 0,0 5.429,-22 -18.285,-61.143 0,0 25.714,8.857 33.143,50.571 7.428,41.715 2.857,65.143 -10,88 -12.858,22.857 -46.572,114.286 -47.429,121.429 -0.857,7.143 -38.857,98.571 -78,120.857 C 48.107,5.786 33.214,3.143 21.214,-3.429 c 0,0 -1.612,29.465 -19.393,53.893 0,0 -14.25,-8.357 -1.821,-50.464"
             style="fill:#f7bbb4;fill-opacity:1;fill-rule:nonzero;stroke:none"
             id="path1854" />
        </g>
        <g
           id="g1856"
           transform="translate(329.6883,389.1908)"
           inkscape:label="mouth">
          <path
             d="m 0,0 c 0,0 -11.25,-7.179 -18,0.536 -6.75,7.714 5.143,19.5 5.143,19.5 0,0 7.393,9.348 20.464,4.406 C 20.679,19.5 10.071,6.214 0,0"
             style="fill:#2b2b2b;fill-opacity:1;fill-rule:nonzero;stroke:none"
             id="path1858" />
        </g>
        <g
           id="g1860"
           transform="translate(309.7493,396.9186)"
           inkscape:label="tongue">
          <path
             d="m 0,0 c 0,0 13.406,6.915 16.744,1.701 3.338,-5.215 3.195,-9.429 3.195,-9.429 0,0 -7.219,-4.936 -14.145,-2.253 C -1.132,-7.299 -0.067,-0.373 0,0"
             style="fill:#e73e11;fill-opacity:1;fill-rule:nonzero;stroke:none"
             id="path1862" />
        </g>
      </g>
    </g>
    <g
       inkscape:groupmode="layer"
       id="layer1"
       inkscape:label="text"
       transform="matrix(0.75000002,0,0,-0.75000002,0,841.89002)"
       style="display:none">
      <text
         xml:space="preserve"
         transform="matrix(1.3333333,0,0,1.3333333,107.5312,898.41067)"
         style="font-variant:normal;font-weight:normal;font-stretch:normal;font-size:62px;font-family:Mabook;-inkscape-font-specification:Mabook;writing-mode:lr-tb;fill:#1d1d1b;fill-opacity:1;fill-rule:nonzero;stroke:none"
         id="text1866"><tspan
           x="0 39.556 85.498001 97.526001 127.658 165.04401 201.06599 238.948 276.14801 314.836"
           y="0"
           sodipodi:role="line"
           id="tspan1864">NOISY-CHAN</tspan></text>
      <g
         id="g1868"
         transform="matrix(1.3333333,0,0,-1.3333333,0,1122.52)"
         style="display:inline">
        <g
           id="g1870"
           clip-path="url(#clipPath1874)">
          <g
             id="g1876"
             transform="translate(69.7143,225.9471)">
            <path
               d="m 0,0 c 117.074,4.467 238.061,4.375 355.179,0.897 0,-0.001 11.839,-0.387 11.839,-0.387 L 378.857,0 C 285.743,-0.956 93.09,-0.956 0,0"
               style="fill:#000000;fill-opacity:1;fill-rule:nonzero;stroke:none"
               id="path1878" />
          </g>
          <g
             id="g1880"
             transform="translate(448.011,153.439)">
            <path
               d="m 0,0 c -117.074,-4.467 -238.061,-4.375 -355.179,-0.897 0,0.001 -11.839,0.387 -11.839,0.387 L -378.857,0 C -285.743,0.956 -93.09,0.956 0,0"
               style="fill:#000000;fill-opacity:1;fill-rule:nonzero;stroke:none"
               id="path1882" />
          </g>
          <g
             id="g1884"
             transform="translate(163.1071,235.3757)">
            <path
               d="m 0,0 6.011,0.514 6.011,0.387 12.023,0.766 12.022,0.561 c 4.007,0.187 8.015,0.281 12.022,0.425 8.015,0.316 16.03,0.377 24.045,0.566 l 24.045,0.179 c 8.014,-0.066 16.029,-0.077 24.044,-0.188 8.015,-0.184 16.03,-0.254 24.045,-0.567 8.015,-0.228 16.03,-0.588 24.044,-0.986 L 180.335,0.896 186.346,0.51 192.357,0 V -0.4 L 96.179,-0.599 0,-0.4 Z"
               style="fill:#000000;fill-opacity:1;fill-rule:nonzero;stroke:none"
               id="path1886" />
          </g>
          <g
             id="g1888"
             transform="translate(355.2555,143.8514)">
            <path
               d="m 0,0 c -23.765,-2.021 -48.319,-2.822 -72.134,-3.219 -35.741,-0.38 -72.586,-0.092 -108.201,2.323 0,0 -6.011,0.386 -6.011,0.386 L -192.357,0 c -0.887,1.087 96.241,0.255 96.178,0.6 C -96.176,0.25 0.802,1.089 0,0"
               style="fill:#000000;fill-opacity:1;fill-rule:nonzero;stroke:none"
               id="path1890" />
          </g>
        </g>
      </g>
    </g>
    <g
       inkscape:groupmode="layer"
       id="layer2"
       inkscape:label="comics"
       transform="matrix(0.75000002,0,0,-0.75000002,0,841.89002)"
       style="display:inline">
      <g
         id="g1896"
         transform="matrix(1.3333333,0,0,-1.3333333,0,1122.52)"
         style="display:inline">
        <g
           id="g1898"
           clip-path="url(#clipPath1902)">
          <g
             id="g1904"
             transform="translate(359.011,471.2645)">
            <path
               d="m 0,0 c 0,-23.848 19.333,-43.181 43.181,-43.181 14.236,0 26.86,6.893 34.726,17.519 1.136,-4.632 5.303,-8.073 10.286,-8.073 5.855,0 10.602,4.747 10.602,10.602 0,0.434 -0.034,0.859 -0.084,1.278 3.395,-0.828 6.939,-1.278 10.59,-1.278 19.236,0 35.622,12.198 41.849,29.281 1.111,-0.396 2.302,-0.622 3.549,-0.622 5.855,0 10.602,4.747 10.602,10.603 0,2.716 -1.03,5.185 -2.71,7.061 9.294,5.378 15.552,15.42 15.552,26.93 0,16.11 -12.248,29.358 -27.94,30.942 -0.311,5.576 -4.918,10.006 -10.573,10.006 -2.707,0 -5.169,-1.023 -7.043,-2.693 -5.518,8.749 -15.262,14.565 -26.37,14.565 -10.571,0 -19.906,-5.268 -25.541,-13.316 -1.894,2.889 -5.156,4.802 -8.869,4.802 -5.855,0 -10.602,-4.747 -10.602,-10.603 0,-0.089 0.011,-0.176 0.013,-0.265 -2.424,0.488 -4.931,0.747 -7.499,0.747 -20.867,0 -37.783,-16.916 -37.783,-37.783 0,-2.179 0.194,-4.312 0.549,-6.391 -5.936,-1.575 -10.316,-6.969 -10.316,-13.4 0,-1.275 0.186,-2.504 0.508,-3.677 C 2.454,16.382 0,8.48 0,0"
               style="fill:#e9e8e8;fill-opacity:1;fill-rule:nonzero;stroke:none"
               id="path1906" />
          </g>
          <g
             id="g1908"
             transform="translate(414.3437,348.0709)">
            <path
               d="m 0,0 c 5.256,11.748 -0.007,25.533 -11.755,30.79 -7.014,3.137 -14.752,2.524 -20.969,-0.977 0.461,2.532 -0.834,5.146 -3.288,6.244 -2.885,1.29 -6.269,-0.002 -7.56,-2.886 -0.096,-0.214 -0.173,-0.431 -0.24,-0.648 -1.49,1.156 -3.137,2.158 -4.936,2.963 -9.476,4.24 -20.237,1.842 -27.069,-5.201 -0.461,0.44 -0.998,0.814 -1.612,1.088 -2.884,1.291 -6.269,-0.001 -7.56,-2.886 -0.598,-1.338 -0.635,-2.782 -0.221,-4.076 -5.764,-0.601 -11.06,-4.169 -13.597,-9.84 -3.55,-7.936 -0.436,-17.162 6.945,-21.4 -1.076,-2.816 0.217,-6.014 3.003,-7.26 1.334,-0.597 2.772,-0.635 4.063,-0.226 0.791,-5.526 4.309,-10.539 9.781,-12.987 5.208,-2.33 10.968,-1.792 15.518,0.931 0.296,-1.841 1.481,-3.502 3.31,-4.32 2.885,-1.291 6.27,10e-4 7.56,2.886 0.02,0.044 0.034,0.089 0.052,0.133 1.087,-0.774 2.265,-1.454 3.53,-2.02 10.28,-4.6 22.342,0.006 26.941,10.286 0.48,1.073 0.854,2.167 1.138,3.269 3.271,-0.532 6.618,1.16 8.036,4.328 0.281,0.628 0.46,1.274 0.56,1.923 C -4.82,-7.53 -1.869,-4.178 0,0"
               style="fill:#e9e8e8;fill-opacity:1;fill-rule:nonzero;stroke:none"
               id="path1910" />
          </g>
          <g
             id="g1912"
             transform="translate(433.5259,423.9656)">
            <path
               d="M 0,0 C -17.704,-8.713 -24.993,-30.129 -16.28,-47.833 -11.078,-58.402 -1.349,-65.256 9.414,-67.212 6.39,-69.748 5.358,-74.1 7.179,-77.798 c 2.139,-4.347 7.397,-6.137 11.744,-3.998 0.322,0.159 0.625,0.339 0.918,0.53 0.626,-2.824 1.587,-5.619 2.921,-8.329 7.028,-14.281 22.071,-21.989 37.027,-20.37 0.113,-0.969 0.38,-1.936 0.835,-2.861 2.14,-4.347 7.398,-6.137 11.745,-3.998 2.017,0.993 3.474,2.66 4.253,4.592 7.388,-4.935 17.129,-5.911 25.674,-1.706 11.96,5.886 17.32,19.82 12.762,32.048 4.026,2.268 5.632,7.307 3.566,11.504 -0.989,2.01 -2.648,3.464 -4.573,4.245 4.479,7.294 5.236,16.652 1.178,24.898 -3.862,7.848 -11.184,12.853 -19.217,14.096 1.453,2.462 1.681,5.582 0.324,8.339 -2.139,4.347 -7.398,6.136 -11.745,3.997 -0.066,-0.033 -0.127,-0.073 -0.192,-0.107 -0.523,1.978 -1.247,3.934 -2.185,5.841 C 74.59,6.414 55.851,12.791 40.36,5.167 38.742,4.371 37.229,3.447 35.816,2.425 32.478,6.256 26.873,7.537 22.098,5.187 21.152,4.721 20.308,4.134 19.555,3.467 13.059,4.164 6.295,3.098 0,0"
               style="fill:#e9e8e8;fill-opacity:1;fill-rule:nonzero;stroke:none"
               id="path1914" />
          </g>
          <g
             id="g1916"
             transform="translate(453.758,295.5903)">
            <path
               d="m 0,0 c 3.257,7.28 -0.004,15.822 -7.285,19.079 -4.345,1.945 -9.14,1.565 -12.993,-0.605 0.286,1.569 -0.517,3.189 -2.038,3.869 -1.787,0.8 -3.885,-0.001 -4.684,-1.788 -0.059,-0.133 -0.107,-0.267 -0.149,-0.402 -0.923,0.717 -1.944,1.338 -3.058,1.837 -5.873,2.627 -12.541,1.141 -16.775,-3.223 -0.285,0.272 -0.618,0.504 -0.998,0.674 -1.788,0.8 -3.885,-10e-4 -4.685,-1.789 -0.371,-0.829 -0.394,-1.723 -0.137,-2.525 -3.572,-0.373 -6.854,-2.584 -8.426,-6.098 -2.2,-4.917 -0.27,-10.634 4.304,-13.261 -0.667,-1.745 0.135,-3.726 1.861,-4.499 0.826,-0.369 1.718,-0.393 2.518,-0.14 0.49,-3.424 2.67,-6.53 6.061,-8.047 3.227,-1.444 6.796,-1.111 9.615,0.577 0.184,-1.141 0.918,-2.17 2.052,-2.678 1.787,-0.799 3.885,10e-4 4.685,1.789 0.012,0.027 0.02,0.055 0.032,0.083 0.673,-0.48 1.403,-0.902 2.187,-1.252 6.37,-2.85 13.845,0.003 16.694,6.373 0.298,0.666 0.53,1.343 0.706,2.026 2.027,-0.329 4.101,0.719 4.979,2.682 0.174,0.389 0.285,0.79 0.347,1.192 2.2,1.46 4.029,3.537 5.187,6.126"
               style="fill:#e9e8e8;fill-opacity:1;fill-rule:nonzero;stroke:none"
               id="path1918" />
          </g>
          <g
             id="g1920"
             transform="translate(375.4286,455.9614)">
            <path
               d="m 0,0 -18,-20.357 45,10.178 z"
               style="fill:#e9e8e8;fill-opacity:1;fill-rule:nonzero;stroke:none"
               id="path1922" />
          </g>
          <g
             id="g1924"
             transform="translate(433.7143,387.6043)">
            <path
               d="M 0,0 -33,17.786 14.368,9.857 1.071,0 Z"
               style="fill:#e9e8e8;fill-opacity:1;fill-rule:nonzero;stroke:none"
               id="path1926" />
          </g>
          <g
             id="g1928"
             transform="translate(412.2857,307.3543)">
            <path
               d="M 0,0 C -0.214,1.335 -7.071,17.893 -7.071,17.893 L 8.143,2.415 Z"
               style="fill:#e9e8e8;fill-opacity:1;fill-rule:nonzero;stroke:none"
               id="path1930" />
          </g>
          <g
             id="g1932"
             transform="translate(389.4448,460.5326)">
            <path
               d="M 0,0 C -0.315,0.382 -0.602,0.778 -4.075,5.116 -5.285,6.411 -5.972,7.143 -6.406,7.608 -7.736,8.986 -7.663,8.988 -7.8,6.784 -7.923,3.67 -7.132,-1.009 -6.618,-3.67 -6.603,-3.699 -6.617,-3.742 -6.601,-3.771 -0.474,-0.144 -0.23,-0.05 0,0 M 9.622,-5.326 C 10.349,-6.404 9.684,-7.9 8.69,-8.508 8.177,-8.783 7.397,-8.836 6.887,-8.706 6.258,-8.494 5.828,-8.102 5.464,-7.563 3.588,-4.826 3.301,-4.43 2.986,-4.048 l -0.031,0.056 c -0.031,0.058 -0.12,0.156 -0.151,0.213 -2.403,-1.403 -6.117,-3.511 -8.32,-4.807 0.375,-1.45 0.808,-2.87 1.257,-4.318 0.442,-1.23 -0.605,-2.492 -1.754,-2.816 -1.292,-0.327 -2.419,0.609 -2.815,1.754 -1.226,3.71 -2.12,7.489 -2.727,11.349 -0.287,1.829 -0.472,3.675 -0.629,5.538 -0.15,1.645 -0.316,3.318 -0.192,5 0.188,1.901 0.647,4.461 2.675,5.333 3.745,1.572 7.169,-2.607 9.272,-5.221 C 0.728,6.635 1.899,5.208 3.013,3.751 5.3,0.796 7.49,-2.249 9.622,-5.326"
               style="fill:#1d1d1b;fill-opacity:1;fill-rule:nonzero;stroke:none"
               id="path1934" />
          </g>
          <g
             id="g1936"
             transform="translate(397.8422,474.4149)">
            <path
               d="M 0,0 C -1.17,-0.556 -1.874,-2.184 -0.441,-3.139 0.311,-3.652 2.005,-3.181 2.614,-3.221 3.302,-1.566 2.071,0.93 0,0 m 6.22,-11.086 c 2.06,1.77 -0.429,5.167 -2.977,3.76 -0.408,-0.88 -0.619,-2.058 -0.43,-3.023 0.373,-1.855 2.308,-1.696 3.407,-0.737 m 3.963,6.355 c 2.956,-3.992 1.28,-9.411 -2.966,-11.143 -4.703,-1.906 -9.008,0.772 -9.56,5.69 -0.067,0.808 -0.006,1.649 0.176,2.334 -1.934,0.797 -3.018,2.196 -3.426,3.776 C -7.236,1.982 0.12,7.151 5.1,2.67 6.6,1.384 7.386,-0.691 7.199,-2.665 c 1.154,-0.37 2.216,-1.047 2.984,-2.066"
               style="fill:#1d1d1b;fill-opacity:1;fill-rule:nonzero;stroke:none"
               id="path1938" />
          </g>
          <g
             id="g1940"
             transform="translate(419.8381,474.8271)">
            <path
               d="m 0,0 c -0.15,0.69 -0.779,0.902 -1.546,0.894 -1.85,-0.041 -3.75,-0.879 -5.432,-1.71 0.144,-0.952 0.504,-2.373 1.24,-3.262 C -3.757,-6.465 0.534,-2.358 0,0 M 1.877,4.975 C 4.198,3.801 4.964,1.422 4.687,-0.931 4.272,-4.459 1.331,-8.207 -2.296,-9.315 c -4.79,-1.474 -8.63,3.07 -9.302,7.665 -0.548,3.818 0.457,7.958 1.947,11.808 0.457,1.2 1.609,1.856 2.905,1.563 1.153,-0.299 1.993,-1.793 1.578,-2.934 -0.55,-1.435 -1.028,-2.866 -1.403,-4.353 2.46,0.956 5.805,1.837 8.448,0.541"
               style="fill:#1d1d1b;fill-opacity:1;fill-rule:nonzero;stroke:none"
               id="path1942" />
          </g>
          <g
             id="g1944"
             transform="translate(426.9948,494.9077)">
            <path
               d="M 0,0 C -1.987,0.143 -4.08,-0.469 -5.928,-1.61 -2.37,-6.856 1.173,-12.148 4.703,-17.411 8.986,-12.609 7.963,-0.673 0,0 m 11.597,-6.54 c 1.007,-5.628 -0.765,-11.686 -4.897,-15.745 -2.204,-1.773 -2.946,-1.622 -4.49,0.156 -3.682,5.547 -8.664,12.965 -12.375,18.497 -0.984,1.49 -1.951,3.834 0.038,5.051 2.813,1.734 5.869,3.084 9.218,3.342 C 5.66,5.248 10.548,-0.495 11.597,-6.54"
               style="fill:#1d1d1b;fill-opacity:1;fill-rule:nonzero;stroke:none"
               id="path1946" />
          </g>
          <g
             id="g1948"
             transform="translate(455.0701,492.8252)">
            <path
               d="M 0,0 C 0.057,0.03 0.128,0.104 0.195,0.252 0.097,0.162 0.07,0.074 0,0 M 3.553,1.176 C 4.597,0.6 5.008,-1.051 4.3,-2.056 2.18,-5.144 -1.164,-7.053 -4.888,-7.367 c -3.116,-0.281 -6.148,0.916 -8.507,2.915 -2.389,1.983 -3.692,4.881 -3.899,7.928 -0.162,3.034 0.977,6.034 2.967,8.206 1.136,1.235 2.571,2.117 4.117,2.655 1.56,0.582 3.166,0.601 4.764,0.359 1.31,-0.25 1.864,-1.825 1.578,-2.933 -0.156,-0.597 -0.631,-1.148 -1.115,-1.408 -0.513,-0.276 -0.975,-0.304 -1.499,-0.218 -0.986,0.057 -2.065,-0.12 -2.991,-0.582 -1.709,-0.919 -2.796,-2.789 -2.982,-4.835 -0.153,-1.624 0.231,-3.364 1.284,-4.707 0.992,-1.23 2.365,-2.143 4.041,-2.527 1.732,-0.354 3.535,-0.155 5.211,0.893 0.725,0.427 1.373,0.997 1.948,1.636 0.07,0.074 0.096,0.162 0.166,0.237 0.042,0.058 0.084,0.118 0.097,0.162 0.778,1.079 2.07,1.407 3.261,0.762"
               style="fill:#1d1d1b;fill-opacity:1;fill-rule:nonzero;stroke:none"
               id="path1950" />
          </g>
          <g
             id="g1952"
             transform="translate(471.5608,501.6962)">
            <path
               d="M 0,0 C 0.056,0.03 0.128,0.105 0.195,0.252 0.097,0.162 0.07,0.074 0,0 M 3.553,1.176 C 4.597,0.6 5.008,-1.051 4.3,-2.056 2.18,-5.144 -1.164,-7.053 -4.888,-7.367 c -3.116,-0.281 -6.148,0.916 -8.507,2.915 -2.389,1.983 -3.692,4.881 -3.899,7.928 -0.162,3.034 0.977,6.034 2.967,8.206 1.136,1.235 2.571,2.117 4.117,2.655 1.56,0.582 3.166,0.601 4.764,0.359 1.31,-0.25 1.864,-1.825 1.578,-2.933 -0.156,-0.597 -0.631,-1.148 -1.115,-1.408 -0.513,-0.276 -0.975,-0.304 -1.499,-0.218 -0.986,0.057 -2.065,-0.12 -2.991,-0.581 -1.709,-0.92 -2.796,-2.79 -2.982,-4.835 -0.153,-1.625 0.231,-3.365 1.284,-4.708 0.992,-1.23 2.365,-2.143 4.041,-2.527 1.732,-0.354 3.535,-0.155 5.211,0.893 0.725,0.427 1.373,0.997 1.948,1.636 0.07,0.074 0.096,0.162 0.166,0.237 0.042,0.058 0.084,0.118 0.097,0.162 0.777,1.079 2.07,1.407 3.261,0.762"
               style="fill:#1d1d1b;fill-opacity:1;fill-rule:nonzero;stroke:none"
               id="path1954" />
          </g>
          <g
             id="g1956"
             transform="translate(487.1409,514.9247)">
            <path
               d="m 0,0 c -1.074,3.976 -4.67,3.29 -7.247,0.912 -0.929,-0.868 -1.515,-2.1 -1.648,-3.421 -0.404,-2.458 1.024,-4.773 3.178,-5.157 2.413,-0.391 4.264,1.56 5.199,3.715 C -0.003,-2.792 0.3,-1.308 0,0 M 2.572,4.982 C 5.418,1.739 5.195,-2.898 3.381,-6.627 2.468,-8.478 1.01,-10.07 -0.663,-11.19 c -1.858,-1.257 -4.134,-1.599 -6.248,-1.085 -4.067,1.008 -6.789,4.978 -6.97,9.068 -0.295,7.442 10.716,14.688 16.453,8.189"
               style="fill:#1d1d1b;fill-opacity:1;fill-rule:nonzero;stroke:none"
               id="path1958" />
          </g>
          <g
             id="g1960"
             transform="translate(504.2029,520.2108)">
            <path
               d="m 0,0 c -0.15,0.69 -0.779,0.902 -1.546,0.894 -1.85,-0.041 -3.75,-0.879 -5.432,-1.71 0.144,-0.952 0.504,-2.373 1.24,-3.262 C -3.757,-6.465 0.534,-2.358 0,0 M 1.877,4.975 C 4.198,3.8 4.964,1.422 4.687,-0.931 4.272,-4.459 1.331,-8.208 -2.296,-9.315 c -4.79,-1.474 -8.63,3.07 -9.302,7.665 -0.548,3.818 0.457,7.958 1.947,11.808 0.457,1.2 1.609,1.856 2.905,1.563 1.153,-0.299 1.993,-1.793 1.578,-2.934 -0.55,-1.435 -1.028,-2.866 -1.403,-4.353 2.46,0.955 5.805,1.837 8.448,0.541"
               style="fill:#1d1d1b;fill-opacity:1;fill-rule:nonzero;stroke:none"
               id="path1962" />
          </g>
          <g
             id="g1964"
             transform="translate(511.4289,535.5184)">
            <path
               d="M 0,0 C -1.17,-0.557 -1.874,-2.184 -0.441,-3.139 0.311,-3.652 2.005,-3.181 2.614,-3.221 3.302,-1.566 2.071,0.93 0,0 m 6.22,-11.086 c 2.06,1.769 -0.429,5.167 -2.977,3.76 -0.408,-0.88 -0.619,-2.059 -0.43,-3.023 0.373,-1.856 2.308,-1.696 3.407,-0.737 m 3.963,6.355 c 2.956,-3.992 1.28,-9.411 -2.966,-11.143 -4.703,-1.906 -9.008,0.772 -9.56,5.69 -0.067,0.808 -0.006,1.649 0.176,2.334 -1.934,0.796 -3.018,2.196 -3.426,3.775 C -7.236,1.982 0.12,7.151 5.1,2.67 6.6,1.384 7.386,-0.691 7.199,-2.665 c 1.154,-0.37 2.216,-1.047 2.984,-2.066"
               style="fill:#1d1d1b;fill-opacity:1;fill-rule:nonzero;stroke:none"
               id="path1966" />
          </g>
          <g
             id="g1968"
             transform="translate(446.2844,393.0229)">
            <path
               d="m 0,0 c -0.693,0.868 -1.538,1.653 -2.498,2.451 -0.944,-1.337 -1.869,-2.649 -2.814,-3.986 0.71,-0.548 1.383,-1.19 2.137,-1.734 C 1.233,-5.976 2.976,-3.929 0,0 M 7.986,5.803 C 10.231,6.35 11.892,7.799 9.828,10.472 8.769,11.851 7.309,13.148 5.612,14.059 3.661,11.312 1.759,8.524 -0.167,5.756 -0.121,5.76 -0.076,5.764 -0.076,5.764 2.321,5.394 5.496,5.21 7.986,5.803 M 6.27,-4.671 C 6.089,-6.642 4.604,-8.278 2.732,-8.928 c -3.588,-1.262 -7.622,1.093 -10.267,3.416 -0.299,0.291 -0.558,0.63 -0.665,1.052 -0.672,-0.107 -1.373,0.101 -1.885,0.485 -1.05,0.79 -0.982,2.273 -0.3,3.245 4.499,6.413 8.932,12.798 13.41,19.186 0.621,0.898 1.838,1.011 2.715,0.614 0.23,-0.024 0.369,-0.057 0.513,-0.135 2.513,-1.131 4.665,-2.796 6.447,-4.859 1.395,-1.575 2.667,-3.548 2.841,-5.691 C 15.725,5.903 14.372,3.574 12.235,2.354 10.294,1.221 8.095,0.928 5.894,0.884 5.44,0.888 5.055,0.875 4.6,0.878 4.707,0.706 4.838,0.514 4.924,0.318 5.836,-1.189 6.444,-2.86 6.27,-4.671"
               style="fill:#1d1d1b;fill-opacity:1;fill-rule:nonzero;stroke:none"
               id="path1970" />
          </g>
          <g
             id="g1972"
             transform="translate(446.2844,393.0229)">
            <path
               d="m 0,0 c -0.693,0.868 -1.538,1.653 -2.498,2.451 -0.944,-1.337 -1.869,-2.649 -2.814,-3.986 0.71,-0.548 1.383,-1.19 2.137,-1.734 C 1.233,-5.976 2.976,-3.929 0,0 Z M 7.986,5.803 C 10.231,6.35 11.892,7.799 9.828,10.472 8.769,11.851 7.309,13.148 5.612,14.059 3.661,11.312 1.759,8.524 -0.167,5.756 -0.121,5.76 -0.076,5.764 -0.076,5.764 2.321,5.394 5.496,5.21 7.986,5.803 Z M 6.27,-4.671 C 6.089,-6.642 4.604,-8.278 2.732,-8.928 c -3.588,-1.262 -7.622,1.093 -10.267,3.416 -0.299,0.291 -0.558,0.63 -0.665,1.052 -0.672,-0.107 -1.373,0.101 -1.885,0.485 -1.05,0.79 -0.982,2.273 -0.3,3.245 4.499,6.413 8.932,12.798 13.41,19.186 0.621,0.898 1.838,1.011 2.715,0.614 0.23,-0.024 0.369,-0.057 0.513,-0.135 2.513,-1.131 4.665,-2.796 6.447,-4.859 1.395,-1.575 2.667,-3.548 2.841,-5.691 C 15.725,5.903 14.372,3.574 12.235,2.354 10.294,1.221 8.095,0.928 5.894,0.884 5.44,0.888 5.055,0.875 4.6,0.878 4.707,0.706 4.838,0.514 4.924,0.318 5.836,-1.189 6.444,-2.86 6.27,-4.671 Z"
               style="fill:none;stroke:#1d1d1b;stroke-width:1;stroke-linecap:butt;stroke-linejoin:miter;stroke-miterlimit:10;stroke-dasharray:none;stroke-opacity:1"
               id="path1974" />
          </g>
          <g
             id="g1976"
             transform="translate(467.5529,379.9631)">
            <path
               d="m 0,0 c 3.25,2.458 1.288,5.503 -1.848,6.987 -1.14,0.531 -2.488,0.611 -3.749,0.245 -2.404,-0.54 -4,-2.709 -3.554,-4.826 0.536,-2.359 3.011,-3.335 5.334,-3.394 C -2.563,-1.032 -1.088,-0.759 0,0 m 5.524,-0.513 c -1.921,-3.813 -6.258,-5.326 -10.351,-5.044 -2.036,0.153 -4.037,0.9 -5.685,2.02 -1.841,1.239 -2.999,3.2 -3.309,5.331 -0.583,4.104 2.051,8.072 5.736,9.753 6.719,3.028 17.446,-4.39 13.609,-12.06"
               style="fill:#1d1d1b;fill-opacity:1;fill-rule:nonzero;stroke:none"
               id="path1978" />
          </g>
          <g
             id="g1980"
             transform="translate(467.5529,379.9631)">
            <path
               d="m 0,0 c 3.25,2.458 1.288,5.503 -1.848,6.987 -1.14,0.531 -2.488,0.611 -3.749,0.245 -2.404,-0.54 -4,-2.709 -3.554,-4.826 0.536,-2.359 3.011,-3.335 5.334,-3.394 C -2.563,-1.032 -1.088,-0.759 0,0 Z m 5.524,-0.513 c -1.921,-3.813 -6.258,-5.326 -10.351,-5.044 -2.036,0.153 -4.037,0.9 -5.685,2.02 -1.841,1.239 -2.999,3.2 -3.309,5.331 -0.583,4.104 2.051,8.072 5.736,9.753 6.719,3.028 17.446,-4.39 13.609,-12.06 z"
               style="fill:none;stroke:#1d1d1b;stroke-width:1;stroke-linecap:butt;stroke-linejoin:miter;stroke-miterlimit:10;stroke-dasharray:none;stroke-opacity:1"
               id="path1982" />
          </g>
          <g
             id="g1984"
             transform="translate(480.1178,378.5067)">
            <path
               d="m 0,0 c 0.762,-0.634 1.525,-1.268 2.264,-1.881 1.008,-0.839 1.027,-2.269 0.303,-3.29 -0.769,-1.025 -2.354,-1.08 -3.289,-0.303 -0.689,0.573 -1.403,1.166 -2.117,1.759 -1.275,-1.686 -2.602,-3.33 -3.91,-5.155 -1.125,-1.353 -0.378,-2.057 0.704,-2.707 1.221,-0.682 2.407,-1.459 3.694,-2.114 1.127,-0.645 1.645,-1.824 1.147,-3.075 -0.421,-1.106 -1.997,-1.752 -3.071,-1.192 -1.652,0.916 -3.288,1.901 -4.863,2.96 -1.505,1.043 -2.977,2.226 -3.135,4.188 -0.117,1.511 0.557,2.823 1.331,4.053 0.776,1.185 1.697,2.292 2.547,3.416 1.865,2.444 3.714,4.818 5.555,7.283 0.871,1.148 1.672,2.313 2.745,3.252 1.326,1.145 3.152,1.541 4.784,0.85 C 6.082,7.469 7.284,6.261 8.441,5.3 9.622,4.318 10.832,3.271 11.976,2.195 12.944,1.307 13.09,-0.02 12.3,-1.07 11.572,-2.046 9.929,-2.22 8.99,-1.397 7.866,-0.297 6.656,0.75 5.475,1.732 4.885,2.222 4.294,2.714 3.683,3.18 3.486,3.344 3.219,3.523 2.998,3.708 1.996,2.502 1.014,1.321 0,0"
               style="fill:#1d1d1b;fill-opacity:1;fill-rule:nonzero;stroke:none"
               id="path1986" />
          </g>
          <g
             id="g1988"
             transform="translate(480.1178,378.5067)">
            <path
               d="m 0,0 c 0.762,-0.634 1.525,-1.268 2.264,-1.881 1.008,-0.839 1.027,-2.269 0.303,-3.29 -0.769,-1.025 -2.354,-1.08 -3.289,-0.303 -0.689,0.573 -1.403,1.166 -2.117,1.759 -1.275,-1.686 -2.602,-3.33 -3.91,-5.155 -1.125,-1.353 -0.378,-2.057 0.704,-2.707 1.221,-0.682 2.407,-1.459 3.694,-2.114 1.127,-0.645 1.645,-1.824 1.147,-3.075 -0.421,-1.106 -1.997,-1.752 -3.071,-1.192 -1.652,0.916 -3.288,1.901 -4.863,2.96 -1.505,1.043 -2.977,2.226 -3.135,4.188 -0.117,1.511 0.557,2.823 1.331,4.053 0.776,1.185 1.697,2.292 2.547,3.416 1.865,2.444 3.714,4.818 5.555,7.283 0.871,1.148 1.672,2.313 2.745,3.252 1.326,1.145 3.152,1.541 4.784,0.85 C 6.082,7.469 7.284,6.261 8.441,5.3 9.622,4.318 10.832,3.271 11.976,2.195 12.944,1.307 13.09,-0.02 12.3,-1.07 11.572,-2.046 9.929,-2.22 8.99,-1.397 7.866,-0.297 6.656,0.75 5.475,1.732 4.885,2.222 4.294,2.714 3.683,3.18 3.486,3.344 3.219,3.523 2.998,3.708 1.996,2.502 1.014,1.321 0,0 Z"
               style="fill:none;stroke:#1d1d1b;stroke-width:1;stroke-linecap:butt;stroke-linejoin:miter;stroke-miterlimit:10;stroke-dasharray:none;stroke-opacity:1"
               id="path1990" />
          </g>
          <g
             id="g1992"
             transform="translate(490.9544,356.1017)">
            <path
               d="M 0,0 C 0.577,0.394 0.54,1.049 0.248,1.75 -0.475,3.433 -1.948,4.865 -3.334,6.1 -4.153,5.616 -5.324,4.758 -5.867,3.753 -7.323,1.052 -1.964,-1.363 0,0 M 5.26,0.121 C 5.042,-2.444 3.144,-4.028 0.882,-4.645 c -3.391,-0.926 -7.919,0.383 -10.278,3.301 -3.127,3.848 -0.381,9.055 3.587,11.374 3.299,1.918 7.469,2.529 11.553,2.587 1.271,0.026 2.3,-0.787 2.51,-2.086 C 8.408,9.364 7.348,8.039 6.148,7.996 4.627,7.97 3.136,7.878 1.633,7.671 3.422,5.768 5.47,3.026 5.26,0.121"
               style="fill:#1d1d1b;fill-opacity:1;fill-rule:nonzero;stroke:none"
               id="path1994" />
          </g>
          <g
             id="g1996"
             transform="translate(490.9544,356.1017)">
            <path
               d="M 0,0 C 0.577,0.394 0.54,1.049 0.248,1.75 -0.475,3.433 -1.948,4.865 -3.334,6.1 -4.153,5.616 -5.324,4.758 -5.867,3.753 -7.323,1.052 -1.964,-1.363 0,0 Z M 5.26,0.121 C 5.042,-2.444 3.144,-4.028 0.882,-4.645 c -3.391,-0.926 -7.919,0.383 -10.278,3.301 -3.127,3.848 -0.381,9.055 3.587,11.374 3.299,1.918 7.469,2.529 11.553,2.587 1.271,0.026 2.3,-0.787 2.51,-2.086 C 8.408,9.364 7.348,8.039 6.148,7.996 4.627,7.97 3.136,7.878 1.633,7.671 3.422,5.768 5.47,3.026 5.26,0.121 Z"
               style="fill:none;stroke:#1d1d1b;stroke-width:1;stroke-linecap:butt;stroke-linejoin:miter;stroke-miterlimit:10;stroke-dasharray:none;stroke-opacity:1"
               id="path1998" />
          </g>
          <g
             id="g2000"
             transform="translate(505.3347,343.3164)">
            <path
               d="m 0,0 c -1.714,-1.862 -4.18,-1.975 -6.431,-1.228 -2.131,0.689 -3.989,2.358 -5.331,4.098 -0.8,1.039 -0.388,2.486 0.59,3.213 0.994,0.796 2.462,0.408 3.209,-0.546 0.656,-0.961 2.592,-2.737 3.96,-2.543 0.939,0.177 1.027,1.435 -0.072,2.515 -0.862,0.966 -1.994,1.658 -2.7,2.91 -0.653,1.167 -0.842,2.49 -0.23,3.728 0.479,0.976 1.366,1.694 2.16,2.449 0.773,0.73 1.526,1.436 2.325,2.146 0.904,0.787 2.096,1.169 3.244,0.299 C 2.471,15.588 4.218,14.136 6.252,12.778 7.318,12.058 7.263,10.44 6.551,9.534 6.207,9.071 5.577,8.763 4.991,8.709 4.361,8.65 3.815,8.896 3.307,9.235 1.905,10.15 0.564,11.14 -0.691,12.184 -1.272,11.585 -1.907,11.072 -2.553,10.444 -1.249,9.36 -0.043,8.108 0.741,6.499 1.748,4.456 1.571,1.69 0,0"
               style="fill:#1d1d1b;fill-opacity:1;fill-rule:nonzero;stroke:none"
               id="path2002" />
          </g>
          <g
             id="g2004"
             transform="translate(505.3347,343.3164)">
            <path
               d="m 0,0 c -1.714,-1.862 -4.18,-1.975 -6.431,-1.228 -2.131,0.689 -3.989,2.358 -5.331,4.098 -0.8,1.039 -0.388,2.486 0.59,3.213 0.994,0.796 2.462,0.408 3.209,-0.546 0.656,-0.961 2.592,-2.737 3.96,-2.543 0.939,0.177 1.027,1.435 -0.072,2.515 -0.862,0.966 -1.994,1.658 -2.7,2.91 -0.653,1.167 -0.842,2.49 -0.23,3.728 0.479,0.976 1.366,1.694 2.16,2.449 0.773,0.73 1.526,1.436 2.325,2.146 0.904,0.787 2.096,1.169 3.244,0.299 C 2.471,15.588 4.218,14.136 6.252,12.778 7.318,12.058 7.263,10.44 6.551,9.534 6.207,9.071 5.577,8.763 4.991,8.709 4.361,8.65 3.815,8.896 3.307,9.235 1.905,10.15 0.564,11.14 -0.691,12.184 -1.272,11.585 -1.907,11.072 -2.553,10.444 -1.249,9.36 -0.043,8.108 0.741,6.499 1.748,4.456 1.571,1.69 0,0 Z"
               style="fill:none;stroke:#1d1d1b;stroke-width:1;stroke-linecap:butt;stroke-linejoin:miter;stroke-miterlimit:10;stroke-dasharray:none;stroke-opacity:1"
               id="path2006" />
          </g>
          <g
             id="g2008"
             transform="translate(518.7002,345.9794)">
            <path
               d="m 0,0 c -0.944,0.868 -2.697,0.91 -3.043,-0.758 -0.192,-0.88 0.867,-2.26 1.056,-2.833 C -0.213,-3.609 1.621,-1.555 0,0 m -7.866,-9.813 c 2.386,-1.235 4.582,2.308 2.346,4.124 -0.958,0.048 -2.118,-0.195 -2.931,-0.725 -1.565,-1.03 -0.702,-2.746 0.585,-3.399 m 7.298,-1.282 c -2.567,-4.19 -8.159,-4.66 -11.322,-1.407 -3.491,3.609 -2.629,8.551 1.679,10.879 0.716,0.361 1.51,0.617 2.207,0.704 0.013,2.069 0.896,3.582 2.194,4.541 C -0.862,7.374 6.605,2.54 4.339,-3.69 3.715,-5.542 2.102,-7.031 0.223,-7.591 0.31,-8.787 0.083,-10.013 -0.568,-11.095"
               style="fill:#1d1d1b;fill-opacity:1;fill-rule:nonzero;stroke:none"
               id="path2010" />
          </g>
          <g
             id="g2012"
             transform="translate(518.7002,345.9794)">
            <path
               d="m 0,0 c -0.944,0.868 -2.697,0.91 -3.043,-0.758 -0.192,-0.88 0.867,-2.26 1.056,-2.833 C -0.213,-3.609 1.621,-1.555 0,0 Z m -7.866,-9.813 c 2.386,-1.235 4.582,2.308 2.346,4.124 -0.958,0.048 -2.118,-0.195 -2.931,-0.725 -1.565,-1.03 -0.702,-2.746 0.585,-3.399 z m 7.298,-1.282 c -2.567,-4.19 -8.159,-4.66 -11.322,-1.407 -3.491,3.609 -2.629,8.551 1.679,10.879 0.716,0.361 1.51,0.617 2.207,0.704 0.013,2.069 0.896,3.582 2.194,4.541 C -0.862,7.374 6.605,2.54 4.339,-3.69 3.715,-5.542 2.102,-7.031 0.223,-7.591 0.31,-8.787 0.083,-10.013 -0.568,-11.095 Z"
               style="fill:none;stroke:#1d1d1b;stroke-width:1;stroke-linecap:butt;stroke-linejoin:miter;stroke-miterlimit:10;stroke-dasharray:none;stroke-opacity:1"
               id="path2014" />
          </g>
          <g
             id="g2016"
             transform="translate(537.6382,335.023)">
            <path
               d="m 0,0 c 0.266,-2.634 -2.58,-3.555 -4.468,-4.524 -3.234,-1.639 -9.413,-4.617 -12.692,-6.26 -1.126,-0.604 -2.508,0.337 -2.923,1.389 -0.205,0.504 -0.202,1.209 0.067,1.733 0.261,0.615 0.732,0.931 1.342,1.215 3.321,1.692 9.565,4.698 12.951,6.419 -1.706,1.252 -3.539,2.401 -5.897,4.07 -1.065,0.719 -0.986,2.317 -0.274,3.223 0.809,1.075 2.268,1.027 3.24,0.345 C -6.952,6.403 -5.255,5.242 -3.553,4.035 -2.072,3.013 -0.142,2.032 0,0"
               style="fill:#1d1d1b;fill-opacity:1;fill-rule:nonzero;stroke:none"
               id="path2018" />
          </g>
          <g
             id="g2020"
             transform="translate(537.6382,335.023)">
            <path
               d="m 0,0 c 0.266,-2.634 -2.58,-3.555 -4.468,-4.524 -3.234,-1.639 -9.413,-4.617 -12.692,-6.26 -1.126,-0.604 -2.508,0.337 -2.923,1.389 -0.205,0.504 -0.202,1.209 0.067,1.733 0.261,0.615 0.732,0.931 1.342,1.215 3.321,1.692 9.565,4.698 12.951,6.419 -1.706,1.252 -3.539,2.401 -5.897,4.07 -1.065,0.719 -0.986,2.317 -0.274,3.223 0.809,1.075 2.268,1.027 3.24,0.345 C -6.952,6.403 -5.255,5.242 -3.553,4.035 -2.072,3.013 -0.142,2.032 0,0 Z"
               style="fill:none;stroke:#1d1d1b;stroke-width:1;stroke-linecap:butt;stroke-linejoin:miter;stroke-miterlimit:10;stroke-dasharray:none;stroke-opacity:1"
               id="path2022" />
          </g>
          <g
             id="g2024"
             transform="translate(335.3815,347.7645)">
            <path
               d="M 0,0 C 0.089,0.517 -0.285,0.838 -0.815,1.046 -2.099,1.533 -3.639,1.486 -5.028,1.382 -5.193,0.688 -5.342,-0.391 -5.084,-1.207 -4.385,-3.401 -0.289,-1.77 0,0 m 2.678,2.9 c 1.269,-1.455 1.133,-3.305 0.287,-4.846 -1.268,-2.312 -4.335,-4.071 -7.14,-3.822 -3.705,0.32 -5.081,4.515 -4.263,7.864 0.686,2.78 2.531,5.347 4.629,7.58 0.648,0.698 1.623,0.829 2.433,0.266 0.71,-0.526 0.872,-1.788 0.269,-2.457 C -1.886,6.651 -2.613,5.799 -3.286,4.88 -1.327,4.852 1.22,4.527 2.678,2.9"
               style="fill:#1d1d1b;fill-opacity:1;fill-rule:nonzero;stroke:none"
               id="path2026" />
          </g>
          <g
             id="g2028"
             transform="translate(342.5816,356.3253)">
            <path
               d="M 0,0 C 0.74,0.081 1.479,0.162 2.195,0.24 3.174,0.347 3.954,-0.389 4.128,-1.312 4.28,-2.261 3.482,-3.144 2.575,-3.243 1.907,-3.316 1.215,-3.392 0.524,-3.467 c 0.243,-1.568 0.439,-3.14 0.741,-4.797 0.143,-1.313 0.912,-1.277 1.827,-1.032 1.005,0.303 2.042,0.537 3.066,0.89 0.936,0.272 1.842,-0.065 2.256,-0.985 0.378,-0.804 -0.096,-1.99 -0.959,-2.278 -1.354,-0.413 -2.739,-0.781 -4.131,-1.079 -1.347,-0.268 -2.753,-0.445 -3.893,0.493 -0.876,0.725 -1.231,1.773 -1.492,2.831 -0.234,1.036 -0.352,2.11 -0.514,3.155 -0.345,2.28 -0.662,4.515 -1.031,6.793 -0.165,1.068 -0.375,2.107 -0.323,3.176 0.074,1.312 0.813,2.503 2.036,3.023 1.037,0.451 2.315,0.47 3.436,0.592 C 2.689,7.44 3.884,7.547 5.061,7.603 6.045,7.662 6.836,7.048 6.99,6.075 7.138,5.174 6.375,4.197 5.441,4.119 4.262,4.087 3.066,3.98 1.921,3.855 1.348,3.793 0.775,3.73 0.206,3.645 0.015,3.624 -0.221,3.573 -0.436,3.55 -0.308,2.381 -0.183,1.235 0,0"
               style="fill:#1d1d1b;fill-opacity:1;fill-rule:nonzero;stroke:none"
               id="path2030" />
          </g>
          <g
             id="g2032"
             transform="translate(356.4721,357.5771)">
            <path
               d="M 0,0 C -0.96,-0.057 -1.897,-0.98 -1.178,-2.036 -0.803,-2.6 0.493,-2.747 0.901,-2.944 1.835,-1.997 1.683,0.063 0,0 m 1.191,-9.36 c 1.909,0.644 1.144,3.675 -1.001,3.417 -0.526,-0.493 -0.999,-1.244 -1.138,-1.96 -0.26,-1.381 1.115,-1.809 2.139,-1.457 m 4.496,3.269 c 0.921,-3.57 -1.741,-6.83 -5.144,-6.84 -3.766,-0.001 -5.982,3.041 -4.992,6.577 0.178,0.575 0.455,1.137 0.771,1.557 -1.109,1.086 -1.464,2.352 -1.305,3.552 0.558,4.624 7.057,6.131 9.236,1.66 C 4.925,-0.887 4.888,-2.533 4.209,-3.838 4.9,-4.415 5.442,-5.177 5.687,-6.091"
               style="fill:#1d1d1b;fill-opacity:1;fill-rule:nonzero;stroke:none"
               id="path2034" />
          </g>
          <g
             id="g2036"
             transform="translate(365.8427,358.8657)">
            <path
               d="M 0,0 C 0.74,0.081 1.479,0.162 2.195,0.24 3.174,0.347 3.954,-0.389 4.128,-1.312 4.28,-2.261 3.482,-3.144 2.575,-3.243 1.907,-3.316 1.215,-3.392 0.524,-3.468 c 0.243,-1.567 0.439,-3.139 0.741,-4.796 0.143,-1.313 0.912,-1.277 1.827,-1.032 1.005,0.303 2.042,0.537 3.066,0.89 0.936,0.272 1.842,-0.065 2.256,-0.985 0.378,-0.804 -0.096,-1.99 -0.959,-2.278 -1.354,-0.413 -2.739,-0.781 -4.131,-1.079 -1.347,-0.268 -2.753,-0.445 -3.893,0.493 -0.876,0.725 -1.231,1.773 -1.492,2.831 -0.234,1.036 -0.352,2.11 -0.514,3.155 -0.345,2.28 -0.662,4.515 -1.031,6.793 -0.165,1.068 -0.375,2.107 -0.323,3.176 0.074,1.311 0.813,2.503 2.036,3.023 1.037,0.451 2.315,0.47 3.436,0.592 C 2.689,7.44 3.884,7.547 5.061,7.603 6.045,7.662 6.836,7.048 6.99,6.075 7.138,5.174 6.375,4.197 5.441,4.119 4.262,4.087 3.066,3.98 1.921,3.855 1.348,3.793 0.775,3.73 0.206,3.645 0.015,3.624 -0.221,3.573 -0.436,3.55 -0.308,2.381 -0.183,1.235 0,0"
               style="fill:#1d1d1b;fill-opacity:1;fill-rule:nonzero;stroke:none"
               id="path2038" />
          </g>
          <g
             id="g2040"
             transform="translate(382.6167,352.9467)">
            <path
               d="m 0,0 c -0.6,-0.693 -1.2,-1.387 -1.83,-2.035 1.089,0.192 2.153,0.404 3.237,0.643 1.482,0.356 2.386,-1.719 1.514,-2.804 -0.297,-0.37 -0.693,-0.51 -1.138,-0.631 -1.247,-0.305 -2.501,-0.538 -3.758,-0.748 -1.211,-0.181 -2.598,-0.526 -3.763,-0.025 -0.809,0.322 -1.329,1.11 -1.396,1.948 -0.099,1.124 0.693,2.056 1.569,2.875 1.447,1.342 3.378,3.122 4.224,5.097 0.839,2.048 -0.745,3.058 -2.53,1.946 C -4.437,5.915 -4.938,5.425 -5.103,4.948 -5.49,4.061 -6.54,3.729 -7.399,4.069 -8.283,4.432 -8.593,5.509 -8.28,6.388 -6.479,10.906 1.827,12.007 2.352,5.883 2.549,3.635 1.363,1.671 0,0"
               style="fill:#1d1d1b;fill-opacity:1;fill-rule:nonzero;stroke:none"
               id="path2042" />
          </g>
          <g
             id="g2044"
             transform="translate(396.4779,355.7887)">
            <path
               d="m 0,0 c -0.111,0.35 -0.198,0.703 -1.378,4.654 -0.472,1.229 -0.741,1.923 -0.91,2.364 -0.53,1.318 -0.48,1.3 -1.188,-0.178 -0.953,-2.108 -1.712,-5.547 -2.1,-7.522 0.002,-0.023 -0.018,-0.05 -0.016,-0.073 C -0.366,0.033 -0.172,0.029 0,0 M 5.135,-6.344 C 5.335,-7.288 4.461,-8.132 3.607,-8.273 3.178,-8.32 2.627,-8.14 2.312,-7.908 1.939,-7.587 1.752,-7.197 1.652,-6.725 1.123,-4.32 1.036,-3.968 0.926,-3.617 L 0.92,-3.57 c -0.005,0.048 -0.039,0.142 -0.044,0.189 -2.044,-0.296 -5.186,-0.712 -7.063,-0.988 -0.145,-1.103 -0.242,-2.2 -0.338,-3.321 -0.038,-0.97 -1.11,-1.546 -1.99,-1.449 -0.98,0.134 -1.496,1.092 -1.449,1.991 0.191,2.894 0.628,5.742 1.286,8.567 0.313,1.338 0.699,2.66 1.11,3.984 0.354,1.174 0.707,2.371 1.26,3.494 0.66,1.255 1.689,2.888 3.327,2.922 3.013,0.04 4.204,-3.79 4.924,-6.174 0.405,-1.284 0.814,-2.591 1.174,-3.904 0.751,-2.67 1.409,-5.376 2.018,-8.085"
               style="fill:#1d1d1b;fill-opacity:1;fill-rule:nonzero;stroke:none"
               id="path2046" />
          </g>
          <g
             id="g2048"
             transform="translate(402.8404,298.394)">
            <path
               d="M 0,0 C 0.399,0.059 0.798,0.118 1.183,0.175 1.711,0.253 2.148,-0.13 2.261,-0.626 2.363,-1.136 1.95,-1.631 1.461,-1.703 1.1,-1.757 0.728,-1.812 0.355,-1.867 c 0.164,-0.842 0.303,-1.689 0.499,-2.58 0.105,-0.708 0.52,-0.673 1.01,-0.521 0.538,0.185 1.095,0.332 1.641,0.544 0.502,0.167 0.999,0.003 1.242,-0.487 C 4.968,-5.337 4.735,-5.99 4.274,-6.163 3.549,-6.414 2.808,-6.642 2.061,-6.832 1.337,-7.004 0.58,-7.129 -0.056,-6.645 c -0.489,0.375 -0.704,0.935 -0.867,1.502 -0.147,0.557 -0.232,1.135 -0.342,1.697 -0.233,1.227 -0.451,2.431 -0.697,3.656 -0.111,0.575 -0.246,1.133 -0.24,1.712 0.013,0.711 0.389,1.372 1.04,1.678 0.553,0.266 1.243,0.301 1.848,0.391 C 1.303,4.082 1.948,4.164 2.584,4.219 3.116,4.271 3.556,3.955 3.66,3.432 3.757,2.947 3.365,2.402 2.861,2.342 2.223,2.3 1.579,2.217 0.961,2.126 0.652,2.081 0.344,2.035 0.037,1.977 -0.066,1.962 -0.192,1.929 -0.308,1.912 -0.215,1.282 -0.124,0.665 0,0"
               style="fill:#1d1d1b;fill-opacity:1;fill-rule:nonzero;stroke:none"
               id="path2050" />
          </g>
          <g
             id="g2052"
             transform="translate(413.549,299.0288)">
            <path
               d="m 0,0 c 0.08,-1.696 0.251,-3.392 0.488,-5.079 0.065,-0.529 -0.29,-0.976 -0.803,-1.065 -0.497,-0.099 -1.003,0.299 -1.063,0.79 -0.078,0.527 -0.14,1.043 -0.206,1.572 -0.591,-0.179 -1.206,-0.375 -1.797,-0.554 -0.428,-0.129 -0.85,-0.297 -1.309,-0.207 -0.727,0.116 -1.152,0.763 -1.048,1.488 0.195,1.527 0.72,3.313 1.211,5.146 0.134,0.52 0.78,0.68 1.21,0.521 0.221,-0.072 0.423,-0.279 0.505,-0.477 0.13,-0.258 0.083,-0.475 0.016,-0.735 -0.343,-1.233 -0.643,-2.499 -0.91,-3.892 0.639,0.213 1.292,0.414 1.959,0.618 -0.039,0.533 -0.078,1.066 -0.105,1.6 C -1.877,0.249 -1.6,0.684 -1.062,0.79 -0.601,0.871 -0.021,0.496 0,0"
               style="fill:#1d1d1b;fill-opacity:1;fill-rule:nonzero;stroke:none"
               id="path2054" />
          </g>
          <g
             id="g2056"
             transform="translate(417.467,302.1306)">
            <path
               d="m 0,0 c -0.731,0.326 -1.607,0.381 -2.461,0.202 0.627,-2.47 1.244,-4.954 1.859,-7.426 C 1.674,-5.995 2.919,-1.343 0,0 M 3.491,-4.057 C 3.103,-6.323 1.604,-8.37 -0.513,-9.34 c -1.076,-0.369 -1.336,-0.21 -1.676,0.672 -0.634,2.601 -1.504,6.086 -2.15,8.685 -0.169,0.697 -0.214,1.716 0.704,1.904 1.3,0.271 2.64,0.363 3.942,0.004 2.55,-0.714 3.614,-3.553 3.184,-5.982"
               style="fill:#1d1d1b;fill-opacity:1;fill-rule:nonzero;stroke:none"
               id="path2058" />
          </g>
          <g
             id="g2060"
             transform="translate(424.9773,303.2398)">
            <path
               d="m 0,0 c -0.731,0.326 -1.607,0.381 -2.461,0.202 0.627,-2.47 1.244,-4.954 1.859,-7.426 C 1.674,-5.995 2.919,-1.343 0,0 M 3.491,-4.057 C 3.103,-6.323 1.604,-8.37 -0.513,-9.34 c -1.076,-0.369 -1.336,-0.21 -1.676,0.672 -0.634,2.601 -1.504,6.086 -2.15,8.685 -0.169,0.697 -0.214,1.716 0.704,1.904 1.3,0.271 2.64,0.363 3.942,0.004 2.55,-0.714 3.614,-3.553 3.184,-5.982"
               style="fill:#1d1d1b;fill-opacity:1;fill-rule:nonzero;stroke:none"
               id="path2062" />
          </g>
          <g
             id="g2064"
             transform="translate(434.8055,298.6203)">
            <path
               d="m 0,0 c 0.099,-1.024 -0.536,-1.801 -1.372,-2.279 -0.787,-0.457 -1.795,-0.568 -2.685,-0.502 -0.532,0.04 -0.858,0.557 -0.813,1.05 0.03,0.517 0.544,0.855 1.036,0.823 0.469,-0.062 1.531,0.042 1.843,0.508 0.2,0.333 -0.156,0.701 -0.781,0.661 -0.525,0.001 -1.041,-0.154 -1.612,-0.028 -0.531,0.119 -0.982,0.42 -1.19,0.941 -0.166,0.41 -0.143,0.873 -0.155,1.317 -0.012,0.433 -0.021,0.852 -0.019,1.286 0.006,0.487 0.214,0.951 0.788,1.063 0.913,0.135 1.826,0.27 2.789,0.516 C -1.664,5.484 -1.19,5.029 -1.108,4.568 -1.061,4.338 -1.139,4.064 -1.282,3.872 -1.435,3.665 -1.657,3.567 -1.898,3.505 -2.555,3.328 -3.218,3.191 -3.874,3.094 -3.85,2.756 -3.866,2.425 -3.852,2.06 -3.171,2.16 -2.465,2.186 -1.765,1.986 -0.874,1.737 -0.086,0.934 0,0"
               style="fill:#1d1d1b;fill-opacity:1;fill-rule:nonzero;stroke:none"
               id="path2066" />
          </g>
          <g
             id="g2068"
             transform="translate(440.839,303.0592)">
            <path
               d="m 0,0 c 0.08,-1.696 0.251,-3.392 0.488,-5.079 0.065,-0.529 -0.29,-0.976 -0.803,-1.065 -0.497,-0.099 -1.003,0.299 -1.063,0.79 -0.078,0.527 -0.14,1.043 -0.206,1.572 -0.591,-0.179 -1.206,-0.375 -1.797,-0.554 -0.428,-0.129 -0.85,-0.297 -1.309,-0.207 -0.727,0.116 -1.152,0.763 -1.048,1.488 0.195,1.527 0.72,3.313 1.211,5.146 0.134,0.52 0.78,0.68 1.21,0.521 0.221,-0.072 0.423,-0.279 0.505,-0.477 0.13,-0.258 0.083,-0.475 0.016,-0.735 -0.343,-1.233 -0.643,-2.499 -0.91,-3.892 0.639,0.213 1.292,0.414 1.959,0.618 -0.039,0.533 -0.078,1.066 -0.105,1.6 -0.025,0.523 0.253,0.958 0.79,1.064 C -0.601,0.871 -0.021,0.496 0,0"
               style="fill:#1d1d1b;fill-opacity:1;fill-rule:nonzero;stroke:none"
               id="path2070" />
          </g>
          <g
             id="g2072"
             transform="translate(447.3465,304.0203)">
            <path
               d="m 0,0 c 0.08,-1.696 0.251,-3.392 0.488,-5.079 0.065,-0.529 -0.29,-0.976 -0.803,-1.065 -0.497,-0.099 -1.003,0.299 -1.063,0.79 -0.078,0.527 -0.14,1.043 -0.206,1.572 -0.591,-0.179 -1.206,-0.375 -1.797,-0.554 -0.428,-0.129 -0.85,-0.297 -1.309,-0.207 -0.727,0.116 -1.152,0.763 -1.048,1.488 0.195,1.527 0.72,3.313 1.211,5.146 0.134,0.52 0.78,0.68 1.21,0.521 0.221,-0.072 0.423,-0.279 0.505,-0.477 0.13,-0.258 0.083,-0.475 0.016,-0.735 -0.343,-1.233 -0.643,-2.499 -0.91,-3.892 0.639,0.213 1.292,0.414 1.959,0.618 -0.039,0.533 -0.078,1.066 -0.105,1.6 -0.025,0.523 0.253,0.958 0.79,1.064 C -0.601,0.871 -0.021,0.496 0,0"
               style="fill:#1d1d1b;fill-opacity:1;fill-rule:nonzero;stroke:none"
               id="path2074" />
          </g>
        </g>
        <g
           id="g1892"
           transform="translate(337.5,369.2957)">
          <path
             d="M 0,0 -3.214,15.094 7.607,2.237"
             style="fill:#e9e8e8;fill-opacity:1;fill-rule:nonzero;stroke:none"
             id="path1894" />
        </g>
      </g>
    </g>
  </g>
</svg>
